<svg width="214" height="156" viewBox="0 0 214 156" fill="none" xmlns="http://www.w3.org/2000/svg">
<g clip-path="url(#clip0_6_3544)">
<path fill-rule="evenodd" clip-rule="evenodd" d="M14.4896 0H199.51C203.35 0.00902805 207.031 1.51034 209.746 4.17557C212.461 6.84079 213.991 10.453 214 14.2222V141.778C213.986 145.546 212.455 149.155 209.741 151.819C207.027 154.484 203.349 155.986 199.51 156H14.4896C10.6509 155.986 6.97345 154.484 4.25911 151.819C1.54476 149.155 0.0137669 145.546 0 141.778L0 14.2222C0.00919776 10.453 1.53873 6.84079 4.25406 4.17557C6.96939 1.51034 10.6495 0.00902805 14.4896 0V0ZM154.648 93.0598C154.896 92.0171 155.555 91.1134 156.48 90.5476C157.406 89.9818 158.523 89.8002 159.586 90.0427C160.648 90.2853 161.569 90.9321 162.145 91.841C162.722 92.7498 162.907 93.8462 162.66 94.8889L153.743 132.376C153.496 133.419 152.837 134.322 151.911 134.888C150.985 135.454 149.868 135.636 148.806 135.393C147.743 135.151 146.823 134.504 146.246 133.595C145.67 132.686 145.485 131.59 145.732 130.547L154.648 93.0598ZM28.1781 125.162C26.9494 125.162 25.7712 124.683 24.9024 123.831C24.0336 122.978 23.5456 121.821 23.5456 120.615C23.5456 119.409 24.0336 118.253 24.9024 117.4C25.7712 116.547 26.9494 116.068 28.1781 116.068H71.7165C72.3248 116.068 72.9272 116.186 73.4893 116.414C74.0513 116.643 74.562 116.978 74.9921 117.4C75.4223 117.822 75.7635 118.324 75.9963 118.875C76.2291 119.427 76.349 120.018 76.349 120.615C76.349 121.213 76.2291 121.804 75.9963 122.355C75.7635 122.907 75.4223 123.408 74.9921 123.831C74.562 124.253 74.0513 124.588 73.4893 124.816C72.9272 125.045 72.3248 125.162 71.7165 125.162H28.1781ZM28.1781 96.7692C26.9494 96.7692 25.7712 96.2902 24.9024 95.4374C24.0336 94.5847 23.5456 93.4282 23.5456 92.2222C23.5456 91.0163 24.0336 89.8597 24.9024 89.007C25.7712 88.1543 26.9494 87.6752 28.1781 87.6752H103.83C105.059 87.6752 106.237 88.1543 107.106 89.007C107.975 89.8597 108.463 91.0163 108.463 92.2222C108.463 93.4282 107.975 94.5847 107.106 95.4374C106.237 96.2902 105.059 96.7692 103.83 96.7692H28.1781ZM28.1781 68.3761C26.9494 68.3761 25.7712 67.897 24.9024 67.0443C24.0336 66.1916 23.5456 65.035 23.5456 63.8291C23.5456 62.6231 24.0336 61.4666 24.9024 60.6138C25.7712 59.7611 26.9494 59.2821 28.1781 59.2821H148.031C149.259 59.2821 150.438 59.7611 151.306 60.6138C152.175 61.4666 152.663 62.6231 152.663 63.8291C152.663 65.035 152.175 66.1916 151.306 67.0443C150.438 67.897 149.259 68.3761 148.031 68.3761H28.1781ZM140.681 123.077C141.434 123.797 141.878 124.773 141.92 125.804C141.963 126.835 141.601 127.843 140.909 128.62C140.218 129.398 139.249 129.885 138.202 129.983C137.156 130.081 136.111 129.781 135.283 129.145L119.609 115.726C119.203 115.379 118.872 114.956 118.633 114.483C118.394 114.009 118.253 113.494 118.218 112.967C118.182 112.44 118.253 111.911 118.426 111.411C118.599 110.91 118.871 110.448 119.226 110.051C119.346 109.908 119.48 109.776 119.626 109.658L135.3 96.2564C136.118 95.5537 137.186 95.1985 138.27 95.2691C139.355 95.3396 140.366 95.83 141.082 96.6325C141.798 97.4349 142.16 98.4837 142.088 99.548C142.016 100.612 141.516 101.605 140.699 102.308L128.63 112.701L140.681 123.077ZM174.154 129.162C173.747 129.51 173.274 129.776 172.762 129.945C172.25 130.113 171.71 130.181 171.171 130.145C170.633 130.108 170.107 129.968 169.623 129.732C169.14 129.496 168.709 129.169 168.354 128.769C168 128.37 167.729 127.905 167.557 127.403C167.386 126.901 167.316 126.37 167.354 125.842C167.391 125.313 167.534 124.797 167.774 124.322C168.015 123.848 168.348 123.425 168.755 123.077L180.824 112.701L168.755 102.325C168.35 101.977 168.019 101.554 167.781 101.081C167.542 100.607 167.401 100.092 167.366 99.5651C167.33 99.0381 167.401 98.5094 167.573 98.0091C167.746 97.5089 168.017 97.0469 168.372 96.6496C168.726 96.2522 169.157 95.9273 169.639 95.6934C170.122 95.4595 170.646 95.3211 171.183 95.2862C171.72 95.2512 172.259 95.3205 172.769 95.4899C173.278 95.6593 173.749 95.9256 174.154 96.2735L189.827 109.675C189.974 109.793 190.108 109.925 190.228 110.068C190.583 110.465 190.855 110.927 191.028 111.428C191.201 111.928 191.271 112.457 191.236 112.984C191.2 113.511 191.059 114.026 190.82 114.5C190.582 114.973 190.25 115.396 189.845 115.744L174.171 129.162H174.154ZM205.501 39.812H9.21273V143.162C9.2162 143.685 9.32757 144.201 9.5401 144.68C9.75263 145.159 10.0619 145.59 10.4492 145.949C10.8213 146.315 11.2639 146.605 11.7513 146.801C12.2386 146.998 12.761 147.098 13.2879 147.094H201.374C201.901 147.098 202.423 146.998 202.911 146.801C203.398 146.605 203.84 146.315 204.213 145.949C204.587 145.585 204.884 145.15 205.084 144.672C205.285 144.193 205.385 143.68 205.379 143.162V39.812H205.501ZM185.717 15.9829C187.134 15.9795 188.519 16.3887 189.699 17.1586C190.878 17.9285 191.798 19.0246 192.343 20.3081C192.887 21.5916 193.031 23.0047 192.757 24.3687C192.483 25.7326 191.803 26.9861 190.802 27.9704C189.802 28.9546 188.527 29.6254 187.138 29.8979C185.749 30.1704 184.309 30.0323 183 29.501C181.691 28.9698 180.572 28.0693 179.785 26.9136C178.997 25.7578 178.577 24.3988 178.577 23.0085C178.577 21.1482 179.329 19.3638 180.667 18.0467C182.006 16.7296 183.822 15.9874 185.717 15.9829ZM137.233 15.9829C138.649 15.9829 140.033 16.395 141.21 17.1669C142.387 17.9389 143.304 19.0362 143.846 20.32C144.388 21.6037 144.529 23.0163 144.253 24.3792C143.977 25.742 143.295 26.9939 142.294 27.9764C141.293 28.959 140.018 29.6281 138.629 29.8992C137.241 30.1703 135.802 30.0311 134.494 29.4994C133.186 28.9676 132.068 28.0671 131.282 26.9118C130.495 25.7564 130.075 24.3981 130.075 23.0085C130.075 21.1452 130.829 19.3582 132.172 18.0407C133.514 16.7231 135.335 15.9829 137.233 15.9829ZM161.475 15.9829C162.891 15.9829 164.275 16.395 165.452 17.1669C166.629 17.9389 167.546 19.0362 168.088 20.32C168.63 21.6037 168.772 23.0163 168.495 24.3792C168.219 25.742 167.538 26.9939 166.537 27.9764C165.536 28.959 164.26 29.6281 162.872 29.8992C161.483 30.1703 160.044 30.0311 158.736 29.4994C157.428 28.9676 156.31 28.0671 155.524 26.9118C154.737 25.7564 154.318 24.3981 154.318 23.0085C154.318 21.1452 155.072 19.3582 156.414 18.0407C157.756 16.7231 159.577 15.9829 161.475 15.9829Z" fill="white"/>
</g>
<defs>
<clipPath id="clip0_6_3544">
<rect width="214" height="156" fill="white"/>
</clipPath>
</defs>
</svg>
