<svg width="99" height="66" viewBox="0 0 99 66" fill="none" xmlns="http://www.w3.org/2000/svg">
<path d="M42.0159 51.681C44.9119 50.4426 47.7837 49.7494 50.6073 49.6948C53.3987 49.6403 56.1017 50.2167 58.7161 51.5175C60.325 49.2587 63.0198 47.771 66.0767 47.771C71.0079 47.771 75.014 51.6421 75.014 56.4245C75.014 61.2069 71.016 65.078 66.0767 65.078C61.1375 65.078 57.1394 61.2069 57.1394 56.4245C57.1394 56.2376 57.1474 56.0428 57.1555 55.8559C55.072 54.6953 52.908 54.1891 50.6797 54.228C48.379 54.267 45.9738 54.9056 43.4639 56.0273C43.4719 56.1597 43.472 56.2843 43.472 56.4167C43.472 61.1991 39.4739 65.0702 34.5346 65.0702C29.6034 65.0702 25.5973 61.1991 25.5973 56.4167C25.5973 51.6343 29.5954 47.7632 34.5346 47.7632C37.6719 47.771 40.4231 49.3288 42.0159 51.681ZM27.6888 3.58434C32.1615 -1.61867 33.883 -0.0141531 39.3291 1.41122C46.1346 3.1871 52.7793 3.62328 59.8423 1.66047C65.0953 0.196148 67.396 -1.83676 72.1341 3.28057C75.6174 7.03484 77.7813 13.0713 79.0765 16.8567C80.629 21.3821 81.6909 26.0243 82.3264 30.7599H18.2849C20.5695 19.6373 23.3127 9.64413 27.6888 3.58434ZM3.60389 33.8521H95.2457C97.2327 33.8521 98.8496 35.4255 98.8496 37.3416C98.8496 39.2655 97.2246 40.831 95.2457 40.831H3.60389C1.62497 40.831 0 39.2655 0 37.3416C0 35.4255 1.62497 33.8521 3.60389 33.8521Z" fill="white"/>
</svg>
