<svg width="192" height="194" viewBox="0 0 192 194" fill="none" xmlns="http://www.w3.org/2000/svg">
<g clip-path="url(#clip0_6_3546)">
<path fill-rule="evenodd" clip-rule="evenodd" d="M173.762 9.64735C179.784 15.6092 183.507 23.8319 183.507 32.9373C183.507 42.0426 179.784 50.2653 173.762 56.2272C167.74 62.189 159.434 65.8745 150.253 65.8745C145.529 65.8745 141.04 64.8989 136.973 63.1491L133.892 68.9096C144.231 75.7541 151.05 87.4146 151.05 100.639C151.05 111.804 146.202 121.854 138.475 128.838L141.65 132.864C146.655 129.891 152.505 128.172 158.762 128.172C167.943 128.172 176.265 131.857 182.271 137.819C188.293 143.781 192.016 152.004 192.016 161.109C192.016 170.215 188.293 178.437 182.271 184.399C176.249 190.361 167.943 194.046 158.762 194.046C149.58 194.046 141.259 190.361 135.237 184.399C129.215 178.437 125.492 170.215 125.492 161.109C125.492 152.004 129.215 143.781 135.237 137.819C135.424 137.633 135.612 137.463 135.8 137.277L132.703 133.143C126.837 136.72 119.924 138.779 112.525 138.779C98.8233 138.779 86.7793 131.687 79.9596 121.018L61.4244 130.541C64.6465 135.62 66.5079 141.613 66.5079 148.055C66.5079 157.145 62.7852 165.383 56.7632 171.329C50.7412 177.291 42.4355 180.977 33.2383 180.977C24.0567 180.977 15.7354 177.291 9.72904 171.329C3.72269 165.352 0 157.114 0 148.024C0 138.934 3.72269 130.696 9.74468 124.734C15.7667 118.772 24.0723 115.087 33.2539 115.087C42.4355 115.087 50.7568 118.772 56.7788 124.734L56.8257 124.796L76.6749 114.591C74.9543 110.271 74.0158 105.548 74.0158 100.624C74.0158 93.4848 76.0023 86.7952 79.4591 81.0811L66.8363 71.3718C66.5235 71.7125 66.195 72.0532 65.8666 72.3783C59.8446 78.3402 51.5389 82.0257 42.3573 82.0257C33.1757 82.0257 24.8544 78.3402 18.8481 72.3783C12.8261 66.4165 9.10338 58.1938 9.10338 49.0884C9.10338 39.9831 12.8261 31.7604 18.8481 25.814C24.8701 19.8522 33.1757 16.1667 42.3573 16.1667C51.5389 16.1667 59.8602 19.8522 65.8666 25.814C71.8885 31.7759 75.6112 39.9986 75.6112 49.0884C75.6112 55.1122 73.9845 60.7489 71.1377 65.6113L83.7448 75.3051C90.7992 67.454 101.076 62.4987 112.541 62.4987C117.859 62.4987 122.911 63.5672 127.526 65.4874L130.701 59.572C129.293 58.5655 127.979 57.435 126.759 56.2272C120.737 50.2653 117.014 42.0426 117.014 32.9373C117.014 23.8319 120.737 15.6092 126.759 9.64735C132.75 3.6855 141.071 0 150.253 0C159.434 0 167.756 3.6855 173.762 9.64735ZM117.233 110.008C118.25 111.014 118.876 112.392 118.876 113.925C118.876 115.443 118.25 116.837 117.233 117.843C116.217 118.85 114.825 119.469 113.292 119.469C111.743 119.469 110.351 118.85 109.334 117.843C108.318 116.837 107.692 115.458 107.692 113.925C107.692 112.408 108.318 111.014 109.334 110.008C110.351 109.001 111.743 108.382 113.292 108.382C114.809 108.382 116.217 109.001 117.233 110.008ZM124.084 85.9125C127.494 87.4765 130.873 89.7683 134.173 92.8499C134.705 93.3455 134.971 93.9958 135.002 94.6617C135.018 95.3276 134.783 95.9935 134.298 96.52L134.236 96.5819C133.751 97.0619 133.11 97.3097 132.468 97.3252C131.796 97.3407 131.123 97.1084 130.607 96.6283L130.56 96.5819C127.745 93.9649 124.882 91.9982 122.035 90.682C119.142 89.3503 116.248 88.6689 113.386 88.6224C110.476 88.576 107.567 89.1799 104.658 90.4033C101.733 91.6421 98.8233 93.5158 95.9765 96.0089C95.9296 96.0554 95.8827 96.1018 95.8201 96.1328C95.2883 96.5509 94.647 96.7367 94.037 96.6903C93.3957 96.6593 92.7544 96.3806 92.2851 95.8696C92.2382 95.8231 92.1913 95.7767 92.16 95.7147C91.7377 95.2037 91.55 94.5533 91.5969 93.9339C91.6438 93.268 91.941 92.6331 92.4728 92.1531C95.8045 89.2264 99.2456 87.0275 102.765 85.5564C106.284 84.0852 109.866 83.3729 113.479 83.4349C117.014 83.4968 120.565 84.302 124.084 85.9125ZM119.83 96.7213C121.91 97.511 123.959 98.7034 125.93 100.298L125.993 100.345C126.524 100.794 126.837 101.413 126.9 102.064C126.962 102.699 126.79 103.38 126.352 103.922L126.29 103.999C125.836 104.526 125.211 104.836 124.554 104.913C123.897 104.975 123.193 104.789 122.63 104.34C121.097 103.101 119.548 102.188 117.984 101.584C116.42 100.98 114.84 100.67 113.276 100.685C111.712 100.685 110.116 101.011 108.552 101.63C106.957 102.25 105.377 103.194 103.844 104.417C103.281 104.867 102.593 105.052 101.92 104.99C101.263 104.928 100.622 104.603 100.153 104.046C99.6992 103.488 99.5115 102.807 99.5741 102.141V102.095C99.6523 101.444 99.9651 100.84 100.513 100.391C102.499 98.7963 104.564 97.5884 106.691 96.7677C108.834 95.947 111.024 95.5134 113.245 95.5134C115.497 95.4979 117.687 95.9005 119.83 96.7213ZM29.7659 44.9693H32.1903V41.6555C32.1903 38.9146 33.3165 36.4369 35.1466 34.6406C36.961 32.8443 39.4793 31.7139 42.2478 31.7139C45.0164 31.7139 47.519 32.8289 49.3334 34.6406C51.1479 36.4369 52.2897 38.9301 52.2897 41.6555V44.9693H54.2136C54.6359 44.9693 54.9957 45.3255 54.9957 45.7436V62.1116C54.9957 62.5297 54.6359 62.8859 54.2136 62.8859H29.7502C29.3279 62.8859 28.9681 62.5297 28.9681 62.1116V45.7436C28.9681 45.31 29.3279 44.9693 29.7659 44.9693ZM36.085 44.9693H48.3637V41.5935C48.3637 39.9211 47.6754 38.4036 46.5649 37.3041C45.4543 36.2047 43.9058 35.5233 42.2322 35.5233C40.5429 35.5233 39.01 36.2047 37.8995 37.3041C36.7889 38.4036 36.1007 39.9366 36.1007 41.5935V44.9693H36.085ZM33.2539 131.052L15.2192 148.551L19.6145 150.842L33.1444 136.797L46.8934 150.842L51.2886 148.551L33.2539 131.052ZM20.5843 152.654L33.2852 140.08L45.9392 152.654V164.981H36.6951H29.7502H20.5843V152.654ZM31.987 156.696L30.3133 161.032H36.1789L34.6304 156.634C35.6158 156.138 36.2884 155.132 36.2884 153.939C36.2884 152.267 34.9119 150.92 33.2383 150.92C31.549 150.92 30.1882 152.283 30.1882 153.939C30.2195 155.163 30.9546 156.216 31.987 156.696ZM169.132 157.006C168.835 157.145 168.538 157.315 168.24 157.486C167.349 157.997 166.473 158.632 165.566 159.359L163.642 157.191C164.299 156.587 165.018 156.03 165.785 155.534C166.395 155.147 167.02 154.791 167.677 154.497C167.943 154.373 168.194 154.249 168.459 154.141C167.192 151.926 165.378 150.331 163.313 149.356C161.264 148.38 158.949 148.009 156.713 148.21C154.492 148.427 152.317 149.232 150.519 150.61C148.454 152.205 146.874 154.574 146.264 157.718L146.076 158.709L145.091 158.879C144.121 159.05 143.261 159.282 142.494 159.576C141.759 159.855 141.102 160.211 140.524 160.614C140.07 160.939 139.663 161.31 139.335 161.713C138.287 162.952 137.802 164.5 137.818 166.064C137.833 167.659 138.349 169.27 139.319 170.586C139.679 171.082 140.101 171.531 140.571 171.918C141.055 172.321 141.603 172.646 142.213 172.894C142.823 173.141 143.48 173.312 144.231 173.42H172.964C174.372 173.079 175.592 172.63 176.64 172.057C177.688 171.484 178.533 170.772 179.174 169.936C180.159 168.635 180.66 166.777 180.676 164.888C180.707 162.905 180.206 160.908 179.252 159.452C178.986 159.034 178.673 158.663 178.361 158.322C176.922 156.789 175.107 156.138 173.23 156.123C171.885 156.092 170.477 156.417 169.132 157.006ZM138.819 31.6675C137.927 29.7783 137.427 27.8116 137.442 25.783C137.458 23.7545 137.974 21.664 139.116 19.496C139.116 19.4805 139.132 19.465 139.132 19.4496C140.617 16.9564 142.698 15.284 145.013 14.3549C146.952 13.5651 149.064 13.3019 151.129 13.4877C153.193 13.6735 155.211 14.3239 156.979 15.3459C159.215 16.6622 161.061 18.6133 162.078 21.0755C162.625 22.4072 163.001 23.8938 163.047 25.5198C163.094 27.1458 162.813 28.8956 162.062 30.7383L156.431 39.4101L144.684 41.0825C144.106 39.3792 143.183 37.4899 141.994 36.1272C140.711 34.7181 139.648 33.4173 138.819 31.6675ZM145.857 48.3142C145.31 46.8276 145.357 45.8985 144.888 43.8699L157.229 42.0581C156.76 44.2261 157.182 45.341 156.853 47.0444C155.837 52.4178 147.734 53.285 145.857 48.3142ZM178.548 141.474C173.48 136.457 166.489 133.36 158.746 133.36C151.003 133.36 144.012 136.457 138.944 141.474C133.876 146.491 130.748 153.428 130.748 161.078C130.748 168.728 133.876 175.665 138.944 180.683C144.012 185.7 151.019 188.797 158.746 188.797C166.473 188.797 173.48 185.7 178.548 180.683C183.616 175.665 186.744 168.728 186.744 161.078C186.744 153.428 183.616 146.491 178.548 141.474ZM170.055 13.3174C164.987 8.30013 157.995 5.20306 150.253 5.20306C142.526 5.20306 135.518 8.30013 130.451 13.3174C125.383 18.3346 122.254 25.2565 122.254 32.9218C122.254 40.587 125.383 47.5089 130.451 52.5262C135.518 57.5434 142.51 60.6405 150.253 60.6405C157.98 60.6405 164.987 57.5434 170.055 52.5262C175.123 47.5089 178.251 40.5715 178.251 32.9218C178.251 25.272 175.123 18.3346 170.055 13.3174ZM62.1439 29.4685C57.076 24.4513 50.0842 21.3542 42.3417 21.3542C34.5991 21.3542 27.6073 24.4513 22.5395 29.4685C17.4716 34.4858 14.3433 41.4232 14.3433 49.073C14.3433 56.7227 17.4716 63.6601 22.5395 68.6774C27.6073 73.6946 34.5991 76.7917 42.3417 76.7917C50.0686 76.7917 57.076 73.6946 62.1439 68.6774C67.2117 63.6601 70.34 56.7382 70.34 49.073C70.3557 41.4232 67.2117 34.4858 62.1439 29.4685ZM53.0561 128.42C47.9883 123.402 40.9809 120.305 33.2539 120.305C25.527 120.305 18.5196 123.402 13.4517 128.42C8.38387 133.437 5.25556 140.359 5.25556 148.024C5.25556 155.674 8.38387 162.611 13.4517 167.628C18.5196 172.646 25.5114 175.743 33.2539 175.743C40.9809 175.743 47.9883 172.646 53.0561 167.628C58.124 162.611 61.2523 155.689 61.2523 148.024C61.2679 140.359 58.124 133.437 53.0561 128.42Z" fill="white"/>
</g>
<defs>
<clipPath id="clip0_6_3546">
<rect width="192" height="194" fill="white"/>
</clipPath>
</defs>
</svg>
