<svg width="128" height="175" viewBox="0 0 128 175" fill="none" xmlns="http://www.w3.org/2000/svg">
<g clip-path="url(#clip0_6_3549)">
<path fill-rule="evenodd" clip-rule="evenodd" d="M41.2263 135.337C41.2263 135.337 34.5883 139.225 45.9435 140.535C59.6996 142.116 66.7189 141.888 81.8733 138.997C81.8733 138.997 85.8561 141.518 91.4207 143.697C57.454 158.394 14.5331 142.857 41.2263 135.337Z" fill="white"/>
<path fill-rule="evenodd" clip-rule="evenodd" d="M37.0739 116.182C37.0739 116.182 29.6309 121.737 41.0002 122.919C55.6885 124.443 67.2979 124.571 87.3672 120.669C87.3672 120.669 90.1495 123.503 94.5136 125.055C53.4288 137.174 7.66908 126.009 37.0739 116.182Z" fill="white"/>
<path fill-rule="evenodd" clip-rule="evenodd" d="M72.0718 83.6833C80.447 93.396 69.8686 102.14 69.8686 102.14C69.8686 102.14 91.1242 91.0746 81.365 77.2176C72.2413 64.3006 65.2502 57.8776 103.101 35.7463C103.101 35.7463 43.698 50.6999 72.0718 83.6833Z" fill="white"/>
<path fill-rule="evenodd" clip-rule="evenodd" d="M116.998 149.508C116.998 149.508 121.899 153.581 111.589 156.742C91.9856 162.738 29.9699 164.547 12.7394 156.984C6.55337 154.264 18.1628 150.505 21.8066 149.707C25.6199 148.867 27.7949 149.023 27.7949 149.023C20.9027 144.139 -16.7219 158.622 8.686 162.781C77.9611 174.103 134.963 157.682 116.998 149.508Z" fill="white"/>
<path fill-rule="evenodd" clip-rule="evenodd" d="M44.418 96.3298C44.418 96.3298 12.8805 103.878 33.2464 106.626C41.8476 107.794 58.9933 107.524 74.9668 106.171C88.0168 105.06 101.123 102.696 101.123 102.696C101.123 102.696 96.5191 104.69 93.186 106.982C61.1542 115.47 -0.720249 111.525 17.0893 102.838C32.1589 95.4895 44.418 96.3298 44.418 96.3298Z" fill="white"/>
<path fill-rule="evenodd" clip-rule="evenodd" d="M100.996 128.217C133.551 111.155 118.495 94.7632 107.987 96.9706C105.417 97.5118 104.259 97.9818 104.259 97.9818C104.259 97.9818 105.219 96.4721 107.041 95.817C127.831 88.4542 143.818 117.55 100.333 129.085C100.347 129.085 100.841 128.63 100.996 128.217Z" fill="white"/>
<path fill-rule="evenodd" clip-rule="evenodd" d="M81.3646 0C81.3646 0 99.4001 18.1864 64.2612 46.1568C36.0851 68.5872 57.8351 81.3904 64.2471 96.0022C47.8075 81.0486 35.732 67.8752 43.8247 55.6132C55.7166 37.6119 88.6381 28.8961 81.3646 0Z" fill="white"/>
<path fill-rule="evenodd" clip-rule="evenodd" d="M47.6099 174.445C78.8649 176.467 126.856 173.32 128 158.409C128 158.409 125.811 164.063 102.168 168.549C75.4894 173.604 42.5961 173.02 23.0776 169.773C23.0776 169.788 27.0745 173.12 47.6099 174.445Z" fill="white"/>
</g>
<defs>
<clipPath id="clip0_6_3549">
<rect width="128" height="175" fill="white"/>
</clipPath>
</defs>
</svg>
